# xmcd
#
# Track frame offsets:
# 150
# 15369
# 31673
# 46177
# 64185
# 80038
# 97399
# 114244
# 128174
# 147035
# 167041
# 186790
# 205867
#
# Disc length: 3000 seconds
#
#
# Revision: 0
# Processed by: cddbd v1.5.2PL0 Copyright (c) Steve Scherf et al.
# Submitted via: FreeRIP 2.60 
#
DISCID=a80bb60d
DTITLE=Jennifer Nettles - That Girl
DYEAR=2014
DGENRE=Country
TTITLE0=Falling
TTITLE1=Me Without You
TTITLE2=Moneyball
TTITLE3=That Girl
TTITLE4=This Angel
TTITLE5=Jealousy
TTITLE6=This One's for You
TTITLE7=Know You Wanna Know
TTITLE8=Thank You
TTITLE9=Good Time to Cry
TTITLE10=Like a Rock
TTITLE11=His Hands
TTITLE12=Every Little Thing
EXTD=Target Exclusive w/ 2 Bonus Tracks
EXTT0=
EXTT1=
EXTT2=
EXTT3=
EXTT4=
EXTT5=
EXTT6=
EXTT7=
EXTT8=
EXTT9=
EXTT10=
EXTT11=
EXTT12=
PLAYORDER=
